<svg xmlns="http://www.w3.org/2000/svg" width="46.73" height="47.178" viewBox="0 0 46.73 47.178"><path d="M23.928.562A23.59,23.59,0,1,1,.562,24.152,23.474,23.474,0,0,1,23.928.562ZM21.2,14.221l7.113,6.886h-17.2a2.267,2.267,0,0,0-2.261,2.283v1.522A2.267,2.267,0,0,0,11.114,27.2h17.2L21.2,34.082a2.3,2.3,0,0,0-.038,3.263L22.2,38.381a2.237,2.237,0,0,0,3.194,0L37.9,25.769a2.289,2.289,0,0,0,0-3.224L25.4,9.913a2.237,2.237,0,0,0-3.194,0l-1.036,1.037a2.312,2.312,0,0,0,.038,3.272Z" transform="translate(-0.562 -0.562)"/></svg>