<svg xmlns="http://www.w3.org/2000/svg" width="40" height="40" viewBox="0 0 40 40">
  <g id="Group_9631" data-name="Group 9631" transform="translate(-284 -54)">
    <g id="Ellipse_2" data-name="Ellipse 2" transform="translate(284 54)" fill="#fff" stroke="rgba(112,112,112,0.16)" stroke-width="1">
      <circle cx="20" cy="20" r="20" stroke="none"/>
      <circle cx="20" cy="20" r="19.5" fill="none"/>
    </g>
    <path id="Icon_material-local-phone" data-name="Icon material-local-phone" d="M6.9,11.24A15.78,15.78,0,0,0,13.76,18.1l2.292-2.292a1.036,1.036,0,0,1,1.063-.25,11.882,11.882,0,0,0,3.719.594A1.045,1.045,0,0,1,21.875,17.2v3.635a1.045,1.045,0,0,1-1.042,1.042A17.707,17.707,0,0,1,3.125,4.167,1.045,1.045,0,0,1,4.167,3.125H7.813A1.045,1.045,0,0,1,8.854,4.167a11.834,11.834,0,0,0,.594,3.719,1.045,1.045,0,0,1-.26,1.063L6.9,11.24Z" transform="translate(291.875 61.875)"/>
  </g>
</svg>
