<svg xmlns="http://www.w3.org/2000/svg" width="45" height="45" viewBox="0 0 45 45">
  <g id="Group_9634" data-name="Group 9634" transform="translate(-336 -792)">
    <circle id="marius-ciocirlan-398931-unsplash" cx="22.5" cy="22.5" r="22.5" transform="translate(381 837) rotate(180)"/>
    <path id="union" d="M5.046,10.746.29,5.99a.606.606,0,0,1-.209-.82.609.609,0,0,1,.168-.2l4.8-4.8a.606.606,0,0,1,.857.857L2.072,4.867H12.33a.606.606,0,1,1,0,1.212H2.094L5.9,9.888a.606.606,0,1,1-.857.858Z" transform="translate(364.968 820.191) rotate(270)" fill="#fff"/>
  </g>
</svg>
