<svg xmlns="http://www.w3.org/2000/svg" width="43" height="21" viewBox="0 0 43 21">
  <g id="Group_9633" data-name="Group 9633" transform="translate(-281 -13)">
    <g id="Group_9632" data-name="Group 9632">
      <rect id="Rectangle_4" data-name="Rectangle 4" width="43" height="21" rx="9" transform="translate(281 13)" fill="#d3d3d3"/>
      <path id="Icon_ionic-ios-star" data-name="Icon ionic-ios-star" d="M9.043,3.75H6.17L5.3,1.145a.316.316,0,0,0-.594,0L3.83,3.75H.938a.313.313,0,0,0-.312.313.23.23,0,0,0,.006.053.3.3,0,0,0,.131.221L3.123,6,2.217,8.635a.313.313,0,0,0,.107.352.3.3,0,0,0,.176.076.383.383,0,0,0,.2-.07L5,7.35,7.3,8.992a.366.366,0,0,0,.2.07.281.281,0,0,0,.174-.076.31.31,0,0,0,.107-.352L6.875,6,9.217,4.32l.057-.049a.328.328,0,0,0,.1-.209A.331.331,0,0,0,9.043,3.75Z" transform="translate(287.375 19.063)"/>
    </g>
  </g>
</svg>
